<svg version="1.1" preserveAspectRatio="none" xmlns="http://www.w3.org/2000/svg" width="500" height="500" viewBox="0 0 500 500"><rect width="100%" height="100%" fill="#000000" fill-opacity="1"/><svg viewBox="366.897 483.75 392.4532 129.8" width="333" height="110.13644429450443" x="83.5px" y="194.9318px" xmlns="http://www.w3.org/2000/svg" xmlns:xlink="http://www.w3.org/1999/xlink" preserveAspectRatio="none"><defs></defs><style>.background-str {stroke:#000000;stroke-opacity:0.93;}.companyName {fill:#FFFFFF;fill-opacity:1;}.companyName-floo {flood-color:#FFFFFF;flood-opacity:1;}.icon3-str {stroke:#676767;stroke-opacity:1;}.text {fill:#FFFFFF;fill-opacity:1;}</style><defs>
      <filter
        x="366.897"
        y="483.75"
        width="392.4532"
        height="91.2469"
        id="Q-iYOAdpak"
        filterUnits="userSpaceOnUse"
        primitiveUnits="userSpaceOnUse"
        color-interpolation-filters="sRGB">
        
    <feGaussianBlur in="SourceGraphic" stdDeviation="0"/>
    <feOffset dx="1.246900283825677" dy="1.246900283825677" result="QUwp18IT4Na"/>
    <feFlood flood-color="#FFFFFF" flood-opacity="1" in="QUwp18IT4Na" />
    <feComposite  in2="QUwp18IT4Na" operator="in" result="l2im-155OMU"/><feMerge result="a256KUdETR-D"><feMergeNode in="l2im-155OMU" /><feMergeNode in="SourceGraphic" /></feMerge>
      </filter></defs><g opacity="1" transform="rotate(0 482.1462 593.75)">
<svg width="160.7078" height="19.8" x="482.1462" y="593.75" version="1.1" preserveAspectRatio="none" viewBox="3.44 -33.68 338.23999999999995 41.68">
  <g transform="matrix(1 0 0 1 0 0)" class="text"><path id="id-6izo4zJp14" d="M19.56-21.20L23.40-21.20L23.40 0L19.76 0L19.76-3.20Q18.60-1.56 16.70-0.66Q14.80 0.24 12.56 0.24L12.56 0.24Q8.32 0.24 5.88-2.10Q3.44-4.44 3.44-9L3.44-9L3.44-21.20L7.28-21.20L7.28-9.44Q7.28-6.36 8.76-4.78Q10.24-3.20 13-3.20L13-3.20Q16.04-3.20 17.80-5.04Q19.56-6.88 19.56-10.24L19.56-10.24L19.56-21.20Z M34.72 0L34.72-21.20L38.56-21.20L38.56 0L34.72 0ZM36.64-25.28Q35.52-25.28 34.78-26Q34.04-26.72 34.04-27.76L34.04-27.76Q34.04-28.80 34.78-29.54Q35.52-30.28 36.64-30.28L36.64-30.28Q37.76-30.28 38.50-29.58Q39.24-28.88 39.24-27.84L39.24-27.84Q39.24-26.76 38.50-26.02Q37.76-25.28 36.64-25.28L36.64-25.28Z M45.12 4L58.32-33.68L61.80-33.68L48.60 4L45.12 4Z M83.88-21.20L87.72-21.20L87.72 0L84.08 0L84.08-3.20Q82.92-1.56 81.02-0.66Q79.12 0.24 76.88 0.24L76.88 0.24Q72.64 0.24 70.20-2.10Q67.76-4.44 67.76-9L67.76-9L67.76-21.20L71.60-21.20L71.60-9.44Q71.60-6.36 73.08-4.78Q74.56-3.20 77.32-3.20L77.32-3.20Q80.36-3.20 82.12-5.04Q83.88-6.88 83.88-10.24L83.88-10.24L83.88-21.20Z M116.92 0L112.56 0L106.44-8.12L100.24 0L95.96 0L104.32-10.84L96.36-21.20L100.64-21.20L106.48-13.56L112.28-21.20L116.48-21.20L108.48-10.84L116.92 0Z M156.04-29.68L159.88-29.68L159.88 0L156.20 0L156.20-3.36Q154.92-1.60 152.96-0.68Q151.00 0.24 148.64 0.24L148.64 0.24Q145.56 0.24 143.12-1.12Q140.68-2.48 139.30-4.94Q137.92-7.40 137.92-10.60L137.92-10.60Q137.92-13.80 139.30-16.24Q140.68-18.68 143.12-20.04Q145.56-21.40 148.64-21.40L148.64-21.40Q150.92-21.40 152.84-20.54Q154.76-19.68 156.04-18L156.04-18L156.04-29.68ZM148.96-3.12Q150.96-3.12 152.60-4.06Q154.24-5 155.16-6.70Q156.08-8.40 156.08-10.60L156.08-10.60Q156.08-12.80 155.16-14.50Q154.24-16.20 152.60-17.12Q150.96-18.04 148.96-18.04L148.96-18.04Q146.92-18.04 145.30-17.12Q143.68-16.20 142.74-14.50Q141.80-12.80 141.80-10.60L141.80-10.60Q141.80-8.40 142.74-6.70Q143.68-5 145.30-4.06Q146.92-3.12 148.96-3.12L148.96-3.12Z M190.32-10.48Q190.32-10.04 190.24-9.32L190.24-9.32L173.04-9.32Q173.40-6.52 175.50-4.82Q177.60-3.12 180.72-3.12L180.72-3.12Q184.52-3.12 186.84-5.68L186.84-5.68L188.96-3.20Q187.52-1.52 185.38-0.64Q183.24 0.24 180.60 0.24L180.60 0.24Q177.24 0.24 174.64-1.14Q172.04-2.52 170.62-5Q169.20-7.48 169.20-10.60L169.20-10.60Q169.20-13.68 170.58-16.16Q171.96-18.64 174.38-20.02Q176.80-21.40 179.84-21.40L179.84-21.40Q182.88-21.40 185.26-20.02Q187.64-18.64 188.98-16.16Q190.32-13.68 190.32-10.48L190.32-10.48ZM179.84-18.16Q177.08-18.16 175.22-16.48Q173.36-14.80 173.04-12.08L173.04-12.08L186.64-12.08Q186.32-14.76 184.46-16.46Q182.60-18.16 179.84-18.16L179.84-18.16Z M205.72 0.24Q203.12 0.24 200.72-0.46Q198.32-1.16 196.96-2.24L196.96-2.24L198.56-5.28Q199.96-4.28 201.96-3.68Q203.96-3.08 206.00-3.08L206.00-3.08Q211.04-3.08 211.04-5.96L211.04-5.96Q211.04-6.92 210.36-7.48Q209.68-8.04 208.66-8.30Q207.64-8.56 205.76-8.88L205.76-8.88Q203.20-9.28 201.58-9.80Q199.96-10.32 198.80-11.56Q197.64-12.80 197.64-15.04L197.64-15.04Q197.64-17.92 200.04-19.66Q202.44-21.40 206.48-21.40L206.48-21.40Q208.60-21.40 210.72-20.88Q212.84-20.36 214.20-19.48L214.20-19.48L212.56-16.44Q209.96-18.12 206.44-18.12L206.44-18.12Q204.00-18.12 202.72-17.32Q201.44-16.52 201.44-15.20L201.44-15.20Q201.44-14.16 202.16-13.56Q202.88-12.96 203.94-12.68Q205.00-12.40 206.92-12.04L206.92-12.04Q209.48-11.60 211.06-11.10Q212.64-10.60 213.76-9.40Q214.88-8.20 214.88-6.04L214.88-6.04Q214.88-3.16 212.42-1.46Q209.96 0.24 205.72 0.24L205.72 0.24Z M223.68 0L223.68-21.20L227.52-21.20L227.52 0L223.68 0ZM225.60-25.28Q224.48-25.28 223.74-26Q223.00-26.72 223.00-27.76L223.00-27.76Q223.00-28.80 223.74-29.54Q224.48-30.28 225.60-30.28L225.60-30.28Q226.72-30.28 227.46-29.58Q228.20-28.88 228.20-27.84L228.20-27.84Q228.20-26.76 227.46-26.02Q226.72-25.28 225.60-25.28L225.60-25.28Z M255.48-21.20L259.12-21.20L259.12-2.88Q259.12 2.68 256.36 5.34Q253.60 8 248.12 8L248.12 8Q245.12 8 242.40 7.18Q239.68 6.36 238.00 4.84L238.00 4.84L239.84 1.88Q241.32 3.16 243.50 3.90Q245.68 4.64 248.00 4.64L248.00 4.64Q251.72 4.64 253.50 2.88Q255.28 1.12 255.28-2.48L255.28-2.48L255.28-4.16Q253.92-2.52 251.94-1.70Q249.96-0.88 247.64-0.88L247.64-0.88Q244.60-0.88 242.14-2.18Q239.68-3.48 238.28-5.82Q236.88-8.16 236.88-11.16L236.88-11.16Q236.88-14.16 238.28-16.50Q239.68-18.84 242.14-20.12Q244.60-21.40 247.64-21.40L247.64-21.40Q250.04-21.40 252.10-20.52Q254.16-19.64 255.48-17.92L255.48-17.92L255.48-21.20ZM248.08-4.24Q250.16-4.24 251.82-5.12Q253.48-6 254.42-7.58Q255.36-9.16 255.36-11.16L255.36-11.16Q255.36-14.24 253.32-16.14Q251.28-18.04 248.08-18.04L248.08-18.04Q244.84-18.04 242.80-16.14Q240.76-14.24 240.76-11.16L240.76-11.16Q240.76-9.16 241.70-7.58Q242.64-6 244.30-5.12Q245.96-4.24 248.08-4.24L248.08-4.24Z M281.76-21.40Q285.80-21.40 288.18-19.06Q290.56-16.72 290.56-12.20L290.56-12.20L290.56 0L286.72 0L286.72-11.76Q286.72-14.84 285.24-16.40Q283.76-17.96 281.00-17.96L281.00-17.96Q277.88-17.96 276.08-16.14Q274.28-14.32 274.28-10.92L274.28-10.92L274.28 0L270.44 0L270.44-21.20L274.12-21.20L274.12-18Q275.28-19.64 277.26-20.52Q279.24-21.40 281.76-21.40L281.76-21.40Z M320.96-10.48Q320.96-10.04 320.88-9.32L320.88-9.32L303.68-9.32Q304.04-6.52 306.14-4.82Q308.24-3.12 311.36-3.12L311.36-3.12Q315.16-3.12 317.48-5.68L317.48-5.68L319.60-3.20Q318.16-1.52 316.02-0.64Q313.88 0.24 311.24 0.24L311.24 0.24Q307.88 0.24 305.28-1.14Q302.68-2.52 301.26-5Q299.84-7.48 299.84-10.60L299.84-10.60Q299.84-13.68 301.22-16.16Q302.60-18.64 305.02-20.02Q307.44-21.40 310.48-21.40L310.48-21.40Q313.52-21.40 315.90-20.02Q318.28-18.64 319.62-16.16Q320.96-13.68 320.96-10.48L320.96-10.48ZM310.48-18.16Q307.72-18.16 305.86-16.48Q304.00-14.80 303.68-12.08L303.68-12.08L317.28-12.08Q316.96-14.76 315.10-16.46Q313.24-18.16 310.48-18.16L310.48-18.16Z M333.96-17.64Q334.96-19.48 336.92-20.44Q338.88-21.40 341.68-21.40L341.68-21.40L341.68-17.68Q341.36-17.72 340.80-17.72L340.80-17.72Q337.68-17.72 335.90-15.86Q334.12-14 334.12-10.56L334.12-10.56L334.12 0L330.28 0L330.28-21.20L333.96-21.20L333.96-17.64Z"/></g>
</svg>
</g><g filter="url(#Q-iYOAdpak)"><g opacity="1" transform="rotate(0 366.897 483.75)">
<svg width="391.2063" height="90" x="366.897" y="483.75" version="1.1" preserveAspectRatio="none" viewBox="3.2 -30 130.4 30">
  <g transform="matrix(1 0 0 1 0 0)" class="companyName"><defs><path id="id-D6z1nYkh5" d="M3.20-26.80L3.20-30L11.36-30L18.92-7.76L26.48-30L34.64-30L34.64-26.80L31.84-26.80L31.84-3.20L34.64-3.20L34.64 0L25.36 0L25.36-3.20L28.16-3.20L28.16-24.68L20.68-3.20L17.16-3.20L9.68-24.68L9.68-3.20L12.48-3.20L12.48 0L3.20 0L3.20-3.20L6-3.20L6-26.80L3.20-26.80Z M56.48 0L45.20 0L41.04-4.40L41.04-25.60L45.20-30L56.48-30L60.64-25.60L60.64-4.40L56.48 0ZM44.72-5.56L46.76-3.44L54.88-3.44L56.96-5.56L56.96-24.44L54.92-26.56L46.80-26.56L44.72-24.44L44.72-5.56Z M67.04-26.80L67.04-30L76.32-30L76.32-26.80L73.52-26.80L73.52-16.60L85.84-16.60L85.84-26.80L83.04-26.80L83.04-30L92.32-30L92.32-26.80L89.52-26.80L89.52-3.20L92.32-3.20L92.32 0L83.04 0L83.04-3.20L85.84-3.20L85.84-13.40L73.52-13.40L73.52-3.20L76.32-3.20L76.32 0L67.04 0L67.04-3.20L69.84-3.20L69.84-26.80L67.04-26.80Z M98.32 0L98.32-3.20L101.52-3.20L101.52-26.80L98.32-26.80L98.32-30L108.40-30L108.40-26.80L105.20-26.80L105.20-3.20L108.40-3.20L108.40 0L98.32 0Z M128.64-3.20L128.64 0L116.96 0L116.96-3.20L120.96-3.20L120.96-26.80L115.04-26.80L115.04-22.16L112.00-22.16L112.00-30L133.60-30L133.60-22.16L130.56-22.16L130.56-26.80L124.64-26.80L124.64-3.20L128.64-3.20Z"/></defs>
  <clipPath id="id-D6z1nYkh5-clip"><use xlink:href="#id-D6z1nYkh5" /></clipPath>
  <g clip-path="url(#id-D6z1nYkh5-clip)"><use xlink:href="#id-D6z1nYkh5" class="background-str" style="stroke-width:1.25;"/></g>
  </g>
</svg>
</g></g></svg></svg>